<svg width="39" height="42" viewBox="0 0 39 42" fill="none" xmlns="http://www.w3.org/2000/svg">
<g clip-path="url(#clip0_3304_2726)">
<path d="M0.0220731 26.1489C0.0340754 34.4341 6.76033 41.1409 15.0456 41.1289C23.3308 41.1169 30.0376 34.3907 30.0256 26.1054C30.0136 17.8202 23.2874 11.1134 15.0021 11.1254C6.71687 11.1374 0.0100709 17.8636 0.0220731 26.1489Z" fill="#E6B313"/>
<path opacity="0.9" d="M23.1211 39.1132C31.5669 39.1132 38.5663 32.7805 38.5663 24.7876C38.5663 19.7925 36.0275 14.7413 33.1568 10.599C30.2667 6.42878 26.934 3.02978 25.1347 1.31278C23.999 0.229069 22.2431 0.229069 21.1074 1.3128C19.3081 3.02978 15.9754 6.42878 13.0853 10.599C10.2146 14.7413 7.67578 19.7925 7.67578 24.7876C7.67578 32.7805 14.6752 39.1132 23.1211 39.1132Z" fill="#008000"/>
</g>
<defs>
<clipPath id="clip0_3304_2726">
<rect width="39" height="41" fill="white" transform="translate(0 0.5)"/>
</clipPath>
</defs>
</svg>
